<?xml version="1.0" encoding="UTF-8" standalone="no"?>
<svg
   xmlns:dc="http://purl.org/dc/elements/1.1/"
   xmlns:cc="http://creativecommons.org/ns#"
   xmlns:rdf="http://www.w3.org/1999/02/22-rdf-syntax-ns#"
   xmlns:svg="http://www.w3.org/2000/svg"
   xmlns="http://www.w3.org/2000/svg"
   xmlns:sodipodi="http://sodipodi.sourceforge.net/DTD/sodipodi-0.dtd"
   xmlns:inkscape="http://www.inkscape.org/namespaces/inkscape"
   enable-background="new 0 0 24 24"
   height="24px"
   id="Layer_1"
   version="1.1"
   viewBox="0 0 24 24"
   width="24px"
   xml:space="preserve"
   sodipodi:docname="calendar.svg"
   inkscape:version="0.92.5 (2060ec1f9f, 2020-04-08)"><metadata
     id="metadata13"><rdf:RDF><cc:Work
         rdf:about=""><dc:format>image/svg+xml</dc:format><dc:type
           rdf:resource="http://purl.org/dc/dcmitype/StillImage" /></cc:Work></rdf:RDF></metadata><defs
     id="defs11" /><sodipodi:namedview
     pagecolor="#ffffff"
     bordercolor="#666666"
     borderopacity="1"
     objecttolerance="10"
     gridtolerance="10"
     guidetolerance="10"
     inkscape:pageopacity="0"
     inkscape:pageshadow="2"
     inkscape:window-width="775"
     inkscape:window-height="480"
     id="namedview9"
     showgrid="false"
     inkscape:zoom="9.8333333"
     inkscape:cx="12"
     inkscape:cy="12"
     inkscape:window-x="0"
     inkscape:window-y="27"
     inkscape:window-maximized="0"
     inkscape:current-layer="Layer_1" /><g
     id="g6"
     style="fill:#8748b4;fill-opacity:1"><path
       d="M22.9,1H18c0-0.6-0.4-1-1-1s-1,0.4-1,1H8c0-0.6-0.4-1-1-1S6,0.4,6,1H1.1C0.5,1,0,1.5,0,2.1v20.8C0,23.5,0.5,24,1.1,24h21.8   c0.6,0,1.1-0.5,1.1-1.1V2.1C24,1.5,23.5,1,22.9,1z M22,22H2V8h20V22z M22,7H2V3h4v1c0,0.6,0.4,1,1,1s1-0.4,1-1V3h8v1   c0,0.6,0.4,1,1,1s1-0.4,1-1V3h4V7z"
       id="path2"
       style="fill:#8748b4;fill-opacity:1" /><path
       d="M10.3,17.7c0.4,0.4,1,0.4,1.4,0l4.1-4.1c0.4-0.4,0.4-1,0-1.4c-0.4-0.4-1-0.4-1.4,0L11,15.7l-1.4-1.4c-0.4-0.4-1-0.4-1.4,0   c-0.4,0.4-0.4,1,0,1.4L10.3,17.7z"
       id="path4"
       style="fill:#8748b4;fill-opacity:1" /></g></svg>