<?xml version="1.0" encoding="UTF-8" standalone="no"?>
<svg
   xmlns:dc="http://purl.org/dc/elements/1.1/"
   xmlns:cc="http://creativecommons.org/ns#"
   xmlns:rdf="http://www.w3.org/1999/02/22-rdf-syntax-ns#"
   xmlns:svg="http://www.w3.org/2000/svg"
   xmlns="http://www.w3.org/2000/svg"
   xmlns:sodipodi="http://sodipodi.sourceforge.net/DTD/sodipodi-0.dtd"
   xmlns:inkscape="http://www.inkscape.org/namespaces/inkscape"
   enable-background="new 0 0 96 96"
   height="96px"
   id="arrow_right"
   version="1.1"
   viewBox="0 0 96 96"
   width="96px"
   xml:space="preserve"
   sodipodi:docname="rightArrow2.svg"
   inkscape:version="0.92.5 (2060ec1f9f, 2020-04-08)"><metadata
     id="metadata9"><rdf:RDF><cc:Work
         rdf:about=""><dc:format>image/svg+xml</dc:format><dc:type
           rdf:resource="http://purl.org/dc/dcmitype/StillImage" /></cc:Work></rdf:RDF></metadata><defs
     id="defs7" /><sodipodi:namedview
     pagecolor="#ffffff"
     bordercolor="#666666"
     borderopacity="1"
     objecttolerance="10"
     gridtolerance="10"
     guidetolerance="10"
     inkscape:pageopacity="0"
     inkscape:pageshadow="2"
     inkscape:window-width="1366"
     inkscape:window-height="704"
     id="namedview5"
     showgrid="false"
     inkscape:zoom="2.4583333"
     inkscape:cx="-24.813559"
     inkscape:cy="48"
     inkscape:window-x="0"
     inkscape:window-y="27"
     inkscape:window-maximized="1"
     inkscape:current-layer="arrow_right" /><path
     d="M12,52h62.344L52.888,73.456c-1.562,1.562-1.562,4.095-0.001,5.656c1.562,1.562,4.096,1.562,5.658,0l28.283-28.284l0,0  c0.186-0.186,0.352-0.391,0.498-0.609c0.067-0.101,0.114-0.21,0.172-0.315c0.066-0.124,0.142-0.242,0.195-0.373  c0.057-0.135,0.089-0.275,0.129-0.415c0.033-0.111,0.076-0.217,0.099-0.331C87.973,48.525,88,48.263,88,48l0,0  c0-0.003-0.001-0.006-0.001-0.009c-0.001-0.259-0.027-0.519-0.078-0.774c-0.024-0.12-0.069-0.231-0.104-0.349  c-0.039-0.133-0.069-0.268-0.123-0.397c-0.058-0.139-0.136-0.265-0.208-0.396c-0.054-0.098-0.097-0.198-0.159-0.292  c-0.146-0.221-0.314-0.427-0.501-0.614L58.544,16.888c-1.562-1.562-4.095-1.562-5.657-0.001c-1.562,1.562-1.562,4.095,0,5.658  L74.343,44L12,44c-2.209,0-4,1.791-4,4C8,50.209,9.791,52,12,52z"
     id="path2"
     style="fill:#ffa033;fill-opacity:1" /></svg>